<svg version="1.1" id="Layer_1" xmlns="http://www.w3.org/2000/svg" xmlns:xlink="http://www.w3.org/1999/xlink" x="0px" y="0px"
	 width="100%" viewBox="0 0 1024 1024" enable-background="new 0 0 1024 1024" xml:space="preserve">
<path fill="#000000" opacity="1.000000" stroke="none" 
	d="
M381.698395,198.579895 
	C412.785370,185.084290 444.811401,176.284103 478.013611,172.042023 
	C502.699677,168.888000 527.449402,169.026093 552.267578,171.437454 
	C580.290894,174.160278 607.469727,180.442276 633.809509,190.029663 
	C698.056030,213.414703 751.277039,252.053467 792.868958,306.507874 
	C824.044189,347.324066 844.348511,393.165009 854.824951,443.218567 
	C862.615540,480.439758 863.603271,518.065796 858.579102,555.901062 
	C850.901001,613.722778 829.092712,665.570190 793.791016,711.785461 
	C764.880737,749.633240 729.412231,779.875366 687.657715,802.945862 
	C650.287292,823.593933 610.382080,836.262756 568.298401,842.132935 
	C514.542969,849.631287 461.972900,843.792114 410.911499,825.667175 
	C331.391205,797.440247 268.800201,747.737610 225.084946,675.415283 
	C203.728516,640.083435 189.771851,601.661743 183.505844,560.598877 
	C180.587601,541.474670 178.522400,522.325439 178.819290,502.977631 
	C179.581940,453.280304 191.047318,406.084320 212.587875,361.359528 
	C246.525330,290.895081 299.350861,239.176666 369.103088,204.387878 
	C373.125275,202.381821 377.263977,200.609375 381.698395,198.579895 
M848.853699,498.509674 
	C848.488647,468.794952 842.749695,440.064850 833.642395,411.844696 
	C820.417053,370.864136 800.064209,333.817169 771.999939,301.289062 
	C724.412903,246.133087 664.787842,210.378143 594.138306,192.681702 
	C561.475342,184.500198 528.307251,182.700150 494.978363,184.631943 
	C462.916779,186.490295 431.858124,193.785751 401.714447,205.116898 
	C347.957550,225.324341 302.503540,257.326324 265.859741,301.374054 
	C224.788406,350.743958 199.973923,407.397736 193.041656,471.494415 
	C189.365540,505.484253 190.600296,539.328064 197.898148,572.785522 
	C207.685410,617.655945 226.287094,658.564575 253.488708,695.634888 
	C281.534576,733.855774 316.419708,764.406982 357.396820,787.837585 
	C402.084534,813.389893 450.044220,828.868042 501.724030,832.059998 
	C525.585999,833.533875 549.428467,833.217651 572.929443,829.181274 
	C635.326416,818.464233 691.169800,793.193909 739.244934,751.620605 
	C779.155151,717.107849 809.257935,675.490479 828.447693,626.251526 
	C844.325684,585.510071 850.524292,543.118286 848.853699,498.509674 
z"/>
<path fill="#000000" opacity="1.000000" stroke="none" 
	d="
M445.538818,491.488647 
	C425.529541,479.456543 405.817566,467.688263 388.488190,452.330414 
	C367.506958,433.736115 350.821991,412.450470 347.185669,383.775970 
	C343.003357,350.796082 350.780579,320.879730 373.535522,295.820801 
	C396.412842,270.627167 425.031128,256.199524 458.685669,251.888168 
	C478.628143,249.333420 498.578461,250.590775 518.447571,253.089386 
	C533.962585,255.040451 549.379700,257.618774 564.716919,260.705994 
	C569.399109,261.648438 571.265015,263.760315 571.507751,268.742126 
	C572.449158,288.063232 571.743713,307.390778 572.185791,326.708679 
	C572.221741,328.281708 572.693054,330.109528 570.807190,331.213287 
	C568.115723,331.116791 568.042908,328.694489 567.235718,327.034943 
	C559.914368,311.983276 551.569336,297.732727 539.269226,285.974060 
	C524.895630,272.233124 507.837280,264.930054 488.270752,263.436859 
	C471.177643,262.132416 454.061249,262.600922 438.573669,271.047089 
	C413.132538,284.921417 397.393707,305.935852 394.213318,335.264191 
	C391.442200,360.818573 400.988129,381.893066 419.022247,399.386841 
	C435.273224,415.150879 454.798859,426.505280 473.440247,439.075439 
	C493.747803,452.769226 515.493408,464.359283 534.951416,479.171722 
	C559.155640,497.597137 581.404053,518.367920 595.641541,545.942322 
	C605.082214,564.226562 610.078796,584.169800 615.312439,603.967651 
	C617.138794,610.876404 619.264893,617.706360 621.286377,624.562805 
	C621.846558,626.462708 622.462158,628.365234 624.224731,629.568848 
	C625.788879,628.954712 625.866577,627.443237 626.219788,626.272034 
	C645.580017,562.070129 664.932312,497.865814 684.156616,433.623138 
	C686.296692,426.471527 687.876770,419.166840 687.798889,411.553223 
	C687.640625,396.080750 680.650574,387.807953 665.419800,385.176575 
	C662.562256,384.682861 659.007996,385.324310 657.052307,382.111420 
	C658.239563,379.514862 660.380859,379.833893 662.307556,379.835083 
	C690.968079,379.852753 719.628662,379.888397 748.289124,379.960083 
	C750.025818,379.964417 752.024414,379.464813 753.350769,381.654022 
	C751.808533,384.540405 748.639648,384.298431 746.129089,385.127136 
	C736.915649,388.168396 727.855286,391.339844 720.910522,398.683014 
	C715.728577,404.162354 712.752625,410.796417 710.171814,417.677246 
	C700.871704,442.472565 693.256897,467.832642 685.122864,493.015320 
	C667.525146,547.496948 650.106262,602.036255 632.652283,656.564209 
	C625.651672,678.434509 618.780823,700.346313 611.764282,722.211365 
	C610.972717,724.678223 610.573486,727.420593 608.579041,729.291626 
	C606.561951,729.427490 606.364258,727.855896 605.951294,726.691345 
	C593.602905,691.864990 580.457336,657.327271 569.735718,621.922058 
	C559.458801,587.985535 540.047485,560.007874 512.352661,537.769836 
	C491.263550,520.835999 468.502197,506.340759 445.538818,491.488647 
z"/>
<path fill="#000000" opacity="1.000000" stroke="none" 
	d="
M429.689972,674.277588 
	C450.984375,677.407837 471.210968,676.250793 490.261902,665.888550 
	C509.729309,655.299866 519.766663,638.121277 524.559448,617.362488 
	C527.893738,602.920654 527.489319,588.314880 524.980896,573.734741 
	C524.480774,570.828064 524.502380,567.831604 524.286438,564.917114 
	C525.035461,564.791870 525.509094,564.588440 525.620239,564.711731 
	C538.035095,578.484558 549.183167,593.084900 556.407288,610.392700 
	C559.779724,618.472412 558.980042,626.063110 554.638550,633.323669 
	C539.873413,658.015869 518.735535,674.745422 490.903046,682.144348 
	C449.277100,693.210266 408.145203,689.746338 367.557220,676.423828 
	C359.172028,673.671509 350.978607,670.428467 342.803467,667.108704 
	C338.972137,665.552917 337.418976,663.246521 337.696442,659.131653 
	C339.473816,632.771362 341.125641,606.402649 342.849518,580.038696 
	C342.943756,578.597473 342.791046,576.996643 344.857117,575.437683 
	C347.057159,581.309143 349.290222,586.914673 351.266754,592.609314 
	C357.463715,610.463440 365.325165,627.576233 375.841980,643.245972 
	C388.489655,662.090576 407.992340,669.844971 429.689972,674.277588 
z"/>
<path fill="#000000" opacity="1.000000" stroke="none" 
	d="
M556.986511,467.132019 
	C559.637146,474.119263 562.140747,480.747437 564.566650,487.169769 
	C563.074646,488.545929 562.268372,487.674133 561.527344,487.118927 
	C543.665527,473.736267 525.812927,460.341858 506.167297,449.591614 
	C503.480865,448.121552 502.201538,445.788513 501.523590,442.857025 
	C499.489502,434.061554 495.681580,425.877350 492.552551,417.458191 
	C484.949768,397.001648 469.783020,386.628448 448.532166,384.305786 
	C446.585022,384.093018 444.481964,384.203796 443.038971,382.006775 
	C444.394073,379.072815 447.189667,379.918030 449.423035,379.911926 
	C479.412567,379.829895 509.402313,379.837952 539.392029,379.820892 
	C546.222839,379.817017 553.053833,379.767365 559.884216,379.816376 
	C561.794678,379.830109 563.901733,379.419281 565.525208,381.282806 
	C564.166443,384.268768 561.202637,383.609222 559.050354,384.244141 
	C549.705139,387.000977 542.230408,391.731323 539.858154,401.860962 
	C538.594910,407.254639 538.709412,412.809082 540.067200,418.197906 
	C544.266479,434.864258 550.638123,450.791595 556.986511,467.132019 
z"/>
</svg>